<?xml version="1.0" encoding="UTF-8" standalone="no"?>
<!-- Created with Inkscape (http://www.inkscape.org/) -->

<svg
   width="88.578201mm"
   height="90.349854mm"
   viewBox="0 0 88.578201 90.349854"
   version="1.1"
   id="svg5"
   inkscape:version="1.1.1 (3bf5ae0d25, 2021-09-20)"
   sodipodi:docname="logo.svg"
   xmlns:inkscape="http://www.inkscape.org/namespaces/inkscape"
   xmlns:sodipodi="http://sodipodi.sourceforge.net/DTD/sodipodi-0.dtd"
   xmlns="http://www.w3.org/2000/svg"
   xmlns:svg="http://www.w3.org/2000/svg">
  <sodipodi:namedview
     id="namedview7"
     pagecolor="#ffffff"
     bordercolor="#666666"
     borderopacity="1.0"
     inkscape:pageshadow="2"
     inkscape:pageopacity="0.0"
     inkscape:pagecheckerboard="0"
     inkscape:document-units="mm"
     showgrid="false"
     inkscape:snap-others="true"
     inkscape:zoom="0.5"
     inkscape:cx="307"
     inkscape:cy="69"
     inkscape:window-width="1920"
     inkscape:window-height="1017"
     inkscape:window-x="1912"
     inkscape:window-y="157"
     inkscape:window-maximized="1"
     inkscape:current-layer="g3131" />
  <defs
     id="defs2" />
  <g
     inkscape:label="Calque 1"
     inkscape:groupmode="layer"
     id="layer1"
     transform="translate(-40.749398,-23.150972)">
    <g
       id="g3131"
       transform="translate(517.76016,-284.66484)">
      <g
         id="g70301"
         transform="matrix(0.67773179,0,0,0.67773179,-0.555908,180.34865)"
         style="stroke-width:1.47551">
        <path
           style="fill:#ef761f;fill-opacity:1;stroke-width:1.47551"
           d="m -665.56087,251.86637 c 0.13664,-1.38813 0.18021,-1.51937 0.48868,-1.47206 4.44973,0.68236 5.99816,-0.47871 9.21529,-6.90994 1.49928,-2.99712 3.11441,-5.46914 4.22687,-6.46932 1.75944,-1.5819 4.30425,-2.36975 6.5334,-2.0227 2.47549,0.38539 4.05583,1.59123 6.6408,5.06712 3.47854,4.67744 6.12235,-0.90296 7.42259,-3.49894 2.40781,-3.95049 3.53059,-7.09647 8.44162,-7.87468 6.05312,0.21612 8.84123,9.47902 9.89387,11.41186 1.544,2.82882 2.63236,6.07263 3.15319,9.398 0.21526,1.37442 0.20966,7.19133 -0.008,8.26647 -0.0695,0.34283 -0.55901,0.18953 -1.41703,0.05 -1.57665,-0.25632 -1.22955,-0.41672 -2.60083,-1.45108 -0.33286,-0.25108 0.49013,-0.77968 0.76123,-1.05082 0.34744,-0.34744 0.0133,-1.88098 -0.28967,-2.49824 -0.62577,-1.03929 -2.27461,-0.89378 -3.18289,-0.78948 -1.33184,-3.34473 -2.65702,-6.34045 -3.76237,-8.7135 -0.87796,-1.22536 -1.49685,-2.13614 -2.76494,-2.32517 -1.89837,0.009 -2.56112,1.22098 -3.50453,1.99726 -2.34905,5.20054 -2.97144,11.16684 -6.50567,14.39286 -0.28652,0.39185 -2.67016,1.04329 -3.4914,0.77225 -4.28133,-1.76882 -4.79267,-7.88172 -7.26683,-10.23669 -1.35822,-0.82099 -1.65826,-1.2613 -3.11277,-0.58405 -2.94209,1.68201 -4.47459,5.69269 -5.94362,9.5961 -1.46904,3.90341 -2.87461,7.69956 -5.56285,8.95254 -1.99955,0.79674 -3.72124,0.11794 -5.28471,-0.23374 -0.9452,-4.27626 -2.46088,-9.34996 -2.07912,-13.77409 z m 52.53711,4.02164 c 3.47202,1.87328 0,0 0,0 z"
           id="path3137"
           sodipodi:nodetypes="sssssscccssssscccccccccscccsss" />
        <path
           style="opacity:1;mix-blend-mode:darken;fill:#203347;fill-opacity:1;stroke-width:1.47551"
           d="m -640.12038,321.31648 c -2.19769,-0.10836 -4.82266,-0.42679 -5.98696,-0.72627 -2.50857,-0.64527 -2.60998,-0.86596 -3.16525,-6.88798 -0.51573,-5.59332 -0.50656,-5.54391 -1.15549,-6.22292 -0.45497,-0.47607 -0.80415,-0.6199 -2.47696,-1.02024 -3.42136,-0.81883 -7.30595,-2.43419 -11.59544,-4.82182 -2.46065,-1.36965 -2.62455,-1.36473 -3.9426,0.11832 -0.56358,0.63412 -1.89891,2.03369 -2.9674,3.11014 -2.98205,3.00425 -4.08964,3.38216 -6.3623,2.17084 -2.13812,-1.1396 -6.23268,-4.58873 -8.58828,-7.23446 -3.62575,-4.07235 -4.65675,-6.09145 -4.14607,-8.11954 0.27664,-1.09867 1.06713,-2.21612 3.06352,-4.33063 2.32944,-2.46729 2.95817,-3.2525 3.20628,-4.00429 0.20552,-0.62268 0.17633,-0.7138 -1.14889,-3.58763 -1.42376,-3.08745 -2.98931,-7.29717 -3.59285,-9.66101 -0.64756,-2.53624 -0.74988,-2.62189 -3.80397,-3.1847 -3.7587,-0.69265 -7.10832,-1.37044 -7.61272,-1.54042 -1.54922,-0.52207 -1.91371,-1.60768 -2.3853,-7.10458 -0.28485,-3.32018 -0.30352,-4.90834 -0.0823,-6.99848 0.0904,-0.85407 0.24911,-2.45652 0.3527,-3.561 0.28283,-3.01589 0.69139,-3.88613 2.12781,-4.53233 0.38365,-0.17259 2.32675,-0.58629 4.318,-0.91932 6.36916,-1.06524 6.28451,-1.02063 7.00793,-3.69288 0.68104,-2.51567 2.34673,-6.66365 4.01457,-9.9973 l 1.00827,-2.0153 -0.31049,-0.68981 c -1.75831,-2.46006 -4.56397,-4.90371 -5.79064,-7.04169 -0.2743,-0.52629 -0.3619,-0.99703 -0.3619,-1.94505 0,-1.10999 0.0688,-1.38091 0.61116,-2.40779 1.69467,-3.20837 5.54412,-7.32439 9.56718,-10.22963 2.11751,-1.52917 3.38878,-2.10343 4.6565,-2.10343 0.92591,0 1.14315,0.0702 1.96045,0.63306 1.10572,0.76152 5.8278,5.55955 5.9855,5.70812 0.11356,0.10699 0.24509,0.11642 0.64282,0.0999 0.53767,-0.0224 1.17709,-0.28875 2.49277,-1.03838 3.74244,-2.13229 8.05079,-3.90496 11.67562,-4.80392 1.98589,-0.49251 2.22965,-0.60795 2.68258,-1.27043 0.35635,-0.52122 0.44623,-1.07235 0.88594,-5.43282 0.65257,-6.47151 0.73661,-6.64738 3.40415,-7.12419 0.77513,-0.13855 1.63793,-0.32046 1.91733,-0.40425 0.90224,-0.27056 6.00703,-0.49648 8.2424,-0.40104 l 2.25612,0.0963 c 0.0845,-0.0183 3.69717,0.41891 5.20445,0.91479 1.38435,0.45545 1.65739,1.11306 2.06743,4.97955 0.39404,3.71547 0.44101,4.11378 0.53927,4.572 0.0499,0.23283 0.1318,0.76623 0.18192,1.18533 0.21145,1.7681 0.76638,2.22682 3.59737,2.97361 1.23398,0.32552 2.52181,0.71054 2.86185,0.85561 0.34002,0.14507 1.26509,0.49442 2.05571,0.77634 1.425,0.50813 4.42085,1.97237 7.02919,3.43557 0.74507,0.41796 1.50707,0.75846 1.69334,0.75666 0.2,-0.002 1.15868,-0.79918 2.34139,-1.94712 1.10595,-1.07342 2.08442,-1.89336 2.10891,-1.9953 0.07,-0.0771 1.43912,-1.44143 2.49234,-2.12282 0.95877,-0.62029 2.52776,-0.61659 3.72534,0.009 4.19537,2.19078 11.22378,9.24107 12.46261,12.5014 0.18356,0.48309 0.32046,1.2655 0.31833,1.81942 -0.006,1.70274 -0.25089,2.061 -4.47457,6.55985 -1.45891,1.55396 -2.04592,2.57288 -1.88046,3.26409 0.0607,0.25368 0.4394,1.03275 0.84152,1.73125 1.24709,2.16622 3.61554,8.17986 4.07655,10.35055 0.1365,0.64273 0.83222,2.03564 1.08344,2.16917 0.49725,0.2643 2.43097,0.68243 6.23824,1.34891 2.37438,0.41564 3.96857,0.77824 4.31743,0.98199 1.22461,0.71521 1.70017,2.15204 2.08346,6.29491 0.29176,3.15367 0.31038,5.53882 0.0683,8.73828 -0.29985,3.96234 -0.96259,6.22963 -1.97376,6.75253 -0.72189,0.3733 -2.97954,0.91104 -6.14711,1.46416 -3.83171,0.66909 -4.20466,0.76401 -4.65152,1.18379 -0.40623,0.38165 -0.802,1.40732 -1.86253,4.82705 -0.79832,2.5742 -1.98697,5.55401 -3.20159,8.02605 -0.52158,1.06153 -0.94803,2.12833 -0.94769,2.37067 0.002,0.69598 0.5511,1.4355 2.93587,3.94685 1.2255,1.29056 2.49487,2.77588 2.82084,3.30072 0.55853,0.89931 0.59243,1.03796 0.5886,2.40765 -0.003,1.24309 -0.0698,1.57909 -0.45825,2.32213 -1.80729,3.45682 -8.85212,10.33699 -12.52274,12.23008 -1.17504,0.60602 -2.13375,0.68715 -3.03327,0.2567 -0.31699,-0.15169 -2.0514,-1.75189 -3.85426,-3.556 -3.82028,-3.8229 -3.5853,-3.71968 -5.70085,-2.50428 -3.79667,2.18121 -8.364,4.13 -11.48369,4.89986 -0.94612,0.23348 -1.9726,0.53887 -2.28107,0.67865 -0.75777,0.34337 -1.16266,1.31225 -1.38363,3.3108 -0.097,0.87749 -0.24836,2.16694 -0.33634,2.86544 -0.088,0.6985 -0.20661,1.6891 -0.2636,2.20133 -0.25428,2.28486 -0.4492,3.33811 -0.72025,3.89203 -0.6116,1.24982 -2.35322,1.71635 -7.57265,2.02853 -2.76789,0.16554 -3.34545,0.17189 -5.588,0.0613 z m 7.70467,-33.42201 c 3.98541,-0.58561 9.43796,-2.65162 12.84507,-4.86709 5.32406,-3.46198 9.42156,-8.13416 12.16013,-13.86562 1.64127,-3.43497 2.72727,-7.11057 3.11823,-10.55381 0.26786,-2.35907 0.11096,-8.37779 -0.26926,-10.32933 -0.99021,-5.08232 -3.30473,-10.36198 -6.21369,-14.17404 -1.01115,-1.40877 -1.524,-1.95836 -2.40379,-2.87861 -0.90524,-0.95039 -2.24916,-2.23706 -2.98647,-2.85926 -1.25526,-1.11682 -1.47686,-1.20387 -2.32584,-1.81587 -1.53411,-1.12065 -3.86405,-2.43435 -6.13506,-3.45916 -2.50871,-1.13206 -3.10187,-1.32798 -6.35,-2.09737 -2.02227,-0.47902 -2.50439,-0.52759 -5.92667,-0.5971 -3.80145,-0.0772 -4.85904,0.0157 -7.76978,0.68228 -2.96503,0.83761 -6.717,2.23933 -9.67155,3.95172 -2.85718,1.68268 -5.92045,4.22797 -8.41431,6.99148 -4.32435,4.79195 -7.12623,10.81865 -8.18739,17.61067 -0.33612,2.15137 -0.4608,6.27859 -0.23534,7.78933 0.76151,5.10205 1.1491,6.69192 2.3344,9.57545 3.29458,8.01489 8.88045,14.06367 16.53464,17.90488 3.83775,1.92596 7.7685,2.97509 12.37704,3.30346 1.8486,0.13173 5.54332,-0.0215 7.51962,-0.31194 z m -8.89,-5.17713 c -2.71131,-0.40117 -6.68567,-1.37972 -7.0707,-1.74093 -0.0704,-0.0661 0.2344,-0.64611 0.67734,-1.289 0.7431,-1.07851 0.85774,-1.17338 1.4827,-1.22702 0.79561,-0.0683 1.37378,-0.44293 1.9157,-1.24134 0.30998,-0.45671 0.86995,-0.8009 2.68423,-1.64989 l 2.29254,-1.07279 0.82951,0.93069 c 1.14959,1.28981 2.23683,1.80756 3.79576,1.80756 1.73503,0 2.68522,-0.37641 3.81549,-1.51145 1.15953,-1.16443 1.61674,-2.38343 1.45923,-3.89046 -0.11623,-1.1121 -0.3175,-0.91428 2.42687,-2.38519 0.9779,-0.52413 2.89951,-1.58166 4.27023,-2.35006 l 2.49225,-1.3971 0.6374,0.43313 c 1.19394,0.8113 2.72217,0.48037 3.66612,-0.79387 0.48533,-0.65516 0.47159,-1.98575 -0.0275,-2.66077 l -0.37192,-0.50305 0.51835,-1.82626 c 0.28509,-1.00444 0.62601,-2.2111 0.75759,-2.68146 0.19865,-0.71004 0.34101,-0.90373 0.8387,-1.14106 l 0.59942,-0.28584 0.64602,0.58364 c 0.81863,0.73958 1.34348,0.93647 2.49633,0.93647 h 0.92231 l -0.10367,0.71966 c -0.43459,3.01682 -1.41986,6.25661 -2.6207,8.61753 -3.48014,6.84207 -9.58737,12.2312 -16.40713,14.47794 -2.8076,0.92495 -4.06531,1.10262 -8.21983,1.16118 -2.14207,0.0302 -4.12327,0.0211 -4.40267,-0.0203 z m -9.99066,-3.16496 c -3.76498,-2.1539 -7.12987,-5.3477 -9.72089,-9.2266 -0.88058,-1.31827 -2.55578,-4.35802 -2.55578,-4.63759 0,-0.0445 0.53999,0.035 1.19996,0.17671 1.00512,0.2158 1.39616,0.22399 2.40818,0.0505 3.08263,-0.52861 5.11793,-3.05439 7.45757,-9.25473 2.5696,-6.80978 3.16002,-8.0672 4.20971,-8.96571 1.14676,-0.98158 2.74734,-1.14476 3.97441,-0.40519 1.13929,0.68666 2.03972,2.13636 3.6949,5.94883 1.01285,2.33295 2.41886,4.00171 3.88923,4.61607 0.80291,0.33548 2.23398,0.30253 3.05337,-0.0703 1.04691,-0.47635 2.18948,-1.75989 2.93973,-3.30242 0.36844,-0.75751 1.32422,-3.26228 2.12395,-5.56616 1.76581,-5.0869 2.25134,-6.14825 3.22197,-7.04294 1.5714,-1.44847 3.30217,-1.30977 4.7932,0.38413 0.67964,0.77211 1.98889,3.62062 3.35143,7.29168 0.34566,0.93133 0.73072,1.89352 0.85569,2.13818 0.21341,0.41785 0.18778,0.48629 -0.42223,1.12754 -0.94092,0.98911 -1.02558,2.40769 -0.18891,3.16488 0.22789,0.20623 0.28802,0.38709 0.1914,0.57571 -0.0775,0.15126 -0.43529,1.28 -0.79512,2.5083 l -0.65424,2.23327 -0.77704,0.0786 c -0.86653,0.0876 -1.64292,1.14998 -1.77666,1.86284 -0.0831,0.44294 -0.28082,0.63344 -1.14777,1.10586 -0.57608,0.3139 -1.9618,1.06785 -3.0794,1.67543 -1.1176,0.60758 -2.77151,1.51508 -3.67538,2.01665 l -1.64338,0.91196 -1.03613,-0.76276 c -0.56986,-0.41951 -1.31625,-0.84056 -1.65862,-0.93565 -1.64133,-0.45587 -3.50066,-0.0149 -4.77747,1.13305 -0.89046,0.8006 -1.85635,2.50679 -1.85635,3.27912 0,0.59503 -0.27539,0.8662 -1.26248,1.24318 -0.43438,0.16589 -1.3723,0.58598 -2.08426,0.93354 l -1.29447,0.63193 -0.74037,-0.56514 c -0.90622,-0.69174 -1.74463,-0.75003 -2.59035,-0.1801 -1.20763,0.81382 -1.67301,2.20514 -1.10595,3.30638 0.22422,0.43545 0.19394,0.5156 -0.635,1.68059 -0.47875,0.67284 -0.94665,1.22437 -1.03979,1.22563 -0.0931,10e-4 -0.47413,-0.17208 -0.84666,-0.3852 z m 15.54454,-5.52824 c -0.97168,-0.59247 -1.29814,-1.67189 -0.83591,-2.76396 0.34767,-0.82142 0.8498,-1.17719 1.78882,-1.26742 1.13001,-0.10858 1.91241,0.36521 2.30632,1.39663 0.25007,0.65483 0.25661,0.83319 0.0537,1.46985 -0.43019,1.35024 -2.06578,1.92535 -3.31297,1.1649 z m -44.24654,-69.60286 c 61.26717,119.39372 30.63358,59.69686 0,0 z"
           id="path3133"
           sodipodi:nodetypes="ccsscsssssssscsssssssssscccscsssssssssssscsssssssssscscscsssssssscsscsscssccsscsssccccsccsssssccccsssccsscsssssccsssscsssssscssscssscsscscsscccssscsssssssssssssssscssssscsssssscssssccccsssccccc" />
        <circle
           style="fill:#ffffff;fill-opacity:1;stroke:none;stroke-width:0.147551;stroke-linejoin:round;stroke-miterlimit:4;stroke-dasharray:none;stroke-opacity:1"
           id="path10181"
           cx="-615.13141"
           cy="254.28888"
           r="2.5686584" />
        <circle
           style="fill:#ffffff;fill-opacity:1;stroke:none;stroke-width:0.147551;stroke-linejoin:round;stroke-miterlimit:4;stroke-dasharray:none;stroke-opacity:1"
           id="path10181-9"
           cx="-618.40594"
           cy="263.96219"
           r="2.5686584" />
        <circle
           style="fill:#ffffff;fill-opacity:1;stroke:none;stroke-width:0.147551;stroke-linejoin:round;stroke-miterlimit:4;stroke-dasharray:none;stroke-opacity:1"
           id="path10181-9-2"
           cx="-646.37573"
           cy="275.84235"
           r="2.5686584" />
      </g>
    </g>
    <g
       id="g1054"
       transform="translate(213.02694,-117.4825)" />
  </g>
</svg>
